<svg version="1.1" id="Layer_1" xmlns="http://www.w3.org/2000/svg" xmlns:xlink="http://www.w3.org/1999/xlink" x="0px" y="0px" width="125px" height="90px" viewBox="0 0 125 90">
	<path fill="#2D5234" d="M73.9,23.6C77.3,11.9,81,5,81,5l-20.3,9.5l1.3-4.2l-18.1,9.1l-1.1,3.4L27,30.2C16.4,45.8,2.3,62.7,0.8,64.5L0,69.3l16.4-6.9c-3.6,9.8-7.7,17.9-10.5,23L5.1,90l29-13.7c2.4-1.1,4.6-2.4,6.5-4.2c0.2-0.2,0.3-0.3,0.5-0.5c0.9,0.1,1.8,0,2.6-0.1c1-0.2,1.8-0.6,2.4-0.8l0,0l0,0l42.4-20c23-31.8,35-46.2,35-46.2L125,0L73.9,23.6z"/>
	<path fill="#8DC63F" d="M2.1,65l17.6-7.3c0,0-8.2,21-12.5,28l26.1-12.3c2.3-1.1,4.3-2.3,6-3.8c0.4-0.4,0.8-0.8,1.1-1.2c0.1,0,0.1,0,0.1,0c1,0.3,1.9,0.2,2.7,0.1c0.8-0.2,1.4-0.5,2-0.7l0,0l41.9-19.7c0,0,21.3-30.2,34.8-45.6L71.7,25.9c3.7-13.5,6.4-18.4,6.4-18.4l-19.6,9.1l1.3-4l-14.2,7.2l-1.1,3.4l-16.1,7.6C28.4,30.8,14.9,51.1,2.1,65"/>
	<path fill="#FFFFFF" d="M29.7,31.4l16.4-7.7l1.1-3.4l10.1-5.1L56,19l19.1-8.9c0,0-2.2,5.3-5.6,18l46.9-21.9c0,0-7.4,7-30.1,39.8L44.8,65.6c-1.1,0.5-2.2,1-3.6,0.6c0,0,0,0-0.1,0c-0.4-0.1-0.7-0.3-1-0.5c-0.5,0.8-1.1,1.5-1.8,2.1c-1.5,1.4-3.4,2.5-5.6,3.6L11.3,81.4c4.4-7.5,11.4-27.3,11.4-27.3l-14.2,6C14,54.2,29.7,31.4,29.7,31.4"/>
	<path fill="#2D5234" d="M48.8,21.4l5.1-2.6l-1.2,3.7l4-1.9l-1,3.3l-4,1.9l-2.8,8.9c-0.3,1.1-0.3,1.3,0.6,0.9l1.8-0.8c1-0.5,1.7-1.2,2-1.5l-1.6,4.1l-6.3,2.9c-1.6,0.8-2.6,0.3-1.3-3.9l2.6-8.3l-1.6,0.7l1-3.3l1.6-0.7L48.8,21.4z"/>
	<path fill="#2D5234" d="M63.5,17.4l-0.4,1.7l0,0c0.5-1,1.1-2,1.8-2.4l4.1-1.9c2.3-1.1,2.6,0.8,1.4,4.6l-2.2,6.8c-0.7,2.3-0.7,2.9-0.7,3.6l-6.1,2.9c0.6-1,1-1.8,1.8-4.1l2.6-8.3c0.3-1,0.2-1.3-0.4-1l-1.8,0.9c-0.6,0.3-0.9,0.7-1.3,1.8l-2.6,8.3c-0.7,2.3-0.7,2.9-0.7,3.6L53,36.7c0.6-1,1-1.8,1.8-4.1l2.9-9.1c0.7-2.3,0.7-2.9,0.7-3.6L63.5,17.4z"/>
	<path fill="#2D5234" d="M22.4,48.1c-0.6,0.9-1.4,2.1-1.7,2.7c-0.3,0.5-0.5,1-0.6,1.4l-4.7,2.2c1.6-1.7,3.2-4,4.1-5.3l11.2-16.2l5.2-2.4l-4.1,12.9l0,0l8-14.7l5.2-2.5l-4,12.6c-0.8,2.6-0.9,3-1,4l-5.9,2.8c0.3-0.5,0.5-0.9,0.8-1.5c0.4-0.9,0.6-1.6,0.8-2.2l2.3-7.3l0,0L31.2,47l-5.7,2.7l3.4-10.8l0,0L22.4,48.1z"/>
	<path fill="#EB0029" d="M24.3,56.5c1.3-3.2,1.6-4.7,1.4-5.6L40.5,44c4.3-2,4.9,0.1,2.5,7.1l-3.3,11c-1,3.2-3.5,5.4-7.7,7.4l-15.7,7.4c0.8-1.5,1.4-2.9,2.6-6.2L24.3,56.5z M26.8,67.1l4-1.9c1.3-0.6,1.6-1.2,2.4-3.5l2.8-8.4c0.8-2.3,0.8-2.7-0.5-2.1l-3.4,1.5L26.8,67.1z"/>
	<path fill="#EB0029" d="M50.2,52.5l-0.7,2.3c-0.5,1.8-0.3,2.3,0.9,1.8l7.2-3.4c1.4-0.7,2.2-1.2,3.7-2.7l-2.4,6.2l-14.8,7c-3.3,1.6-3.5-0.3-1.9-5.6l3.1-9.9c1.6-5.2,3.3-8,6.7-9.6l11.3-5.3c3.3-1.6,3.6,0.3,1.9,5.6l-2.4,7.7L50.2,52.5z M56.9,45.2l1.1-3.4c0.5-1.4,0.4-1.9-0.4-1.5l-3.1,1.4c-0.8,0.4-1.3,1.1-1.7,2.5l-1.1,3.4L56.9,45.2z"/>
	<path fill="#EB0029" d="M97.3,21.9c0.9-1.3,2.1-3.1,2.6-4c0.4-0.8,0.8-1.5,0.9-2.1l7.4-3.5c-2.4,2.6-5,6.1-6.3,8L85.2,44.4L76,48.7l6.1-19.1l-0.1,0L69,52l-7.8,3.7l5.9-18.8c1.2-3.8,1.3-4.4,1.4-6l8.8-4.1c-0.4,0.8-0.7,1.3-1.1,2.2c-0.6,1.3-0.9,2.3-1.2,3.2L71.7,43l0.1,0l10.9-18.7l10.3-4.8l-5.1,16l0.1,0L97.3,21.9z"/>
	<path fill="#2D5234" d="M92.1,54.1c-2.4,0-4.2-1.8-4.2-4.2c0-2.4,1.8-4.2,4.2-4.2c2.4,0,4.2,1.8,4.2,4.2C96.3,52.3,94.5,54.1,92.1,54.1"/>
	<path fill="#FFFFFF" d="M92.1,52.7c-1.5,0-2.8-1-2.8-2.8c0-1.8,1.3-2.8,2.8-2.8c1.5,0,2.8,1,2.8,2.8C94.9,51.6,93.6,52.7,92.1,52.7M92.1,47.7c-1.1,0-2,0.9-2,2.2c0,1.3,0.9,2.1,2,2.1h0v0c1.1,0,2-0.9,2-2.2C94.1,48.6,93.2,47.7,92.1,47.7 M91.6,51.4H91v-3h1.1c0.8,0,1.2,0.2,1.2,0.9c0,0.6-0.3,0.8-0.7,0.8l0.8,1.3h-0.8l-0.7-1.3h-0.3V51.4z M92.2,49.6c0.3,0,0.5-0.1,0.5-0.4c0-0.3-0.3-0.3-0.6-0.3h-0.5v0.7H92.2z"/>
</svg>